<?xml version="1.0" standalone="no"?>
<!DOCTYPE svg PUBLIC "-//W3C//DTD SVG 20010904//EN"
 "http://www.w3.org/TR/2001/REC-SVG-20010904/DTD/svg10.dtd">
<svg version="1.0" xmlns="http://www.w3.org/2000/svg"
 width="180.000000pt" height="180.000000pt" viewBox="0 0 180.000000 180.000000"
 preserveAspectRatio="xMidYMid meet">
<metadata>
Created by potrace 1.11, written by Peter Selinger 2001-2013
</metadata>
<g transform="translate(0.000000,180.000000) scale(0.100000,-0.100000)"
fill="#000000" stroke="none">
<path d="M1370 1744 c-93 -17 -199 -57 -262 -97 -67 -43 -141 -116 -158 -157
-7 -16 -16 -30 -21 -30 -5 0 -9 -4 -9 -9 0 -5 -25 -51 -55 -102 l-54 -94 -53
-1 c-80 -3 -116 -12 -181 -46 -57 -31 -166 -129 -187 -169 -10 -18 -9 -19 32
-12 76 14 166 7 221 -15 23 -10 26 -15 17 -31 -15 -30 -12 -47 13 -77 l24 -27
-37 -61 c-20 -34 -41 -74 -45 -91 -4 -16 -10 -37 -13 -45 -11 -40 -9 -117 6
-147 17 -37 67 -65 103 -58 70 13 87 20 124 48 51 39 123 115 130 137 5 16 9
16 49 2 41 -15 44 -15 74 7 l31 22 35 -48 c32 -45 66 -128 71 -177 1 -12 3
-25 4 -31 4 -27 70 88 92 160 32 104 29 217 -6 285 -14 27 -14 31 4 52 158
185 201 244 229 318 34 92 45 223 27 325 -4 22 -8 47 -9 55 -4 26 -26 94 -35
109 -12 19 -78 21 -161 5z"/>
<path d="M414 333 c-21 -32 -43 -62 -47 -68 -55 -68 -148 -208 -142 -213 4 -4
16 4 26 18 11 14 27 33 35 43 7 9 14 20 14 23 0 2 5 10 11 17 23 27 159 222
159 229 0 21 -20 3 -56 -49z"/>
<path d="M415 194 c-37 -52 -64 -98 -60 -102 3 -4 15 4 26 18 33 43 119 169
119 175 0 20 -26 -8 -85 -91z"/>
</g>
</svg>
